#!OML:ASF F:\VICON\USERDATA\INSTALL\rory3\rory3.ASF
:FULLY-SPECIFIED
:DEGREES
793
root 4.50214 17.3781 2.46207 5.70029 -10.5876 -5.18712
lowerback 12.4214 -0.128348 3.84836
upperback 5.15563 0.270472 1.10526
thorax -1.54496 0.156769 -1.05428
lowerneck -13.1252 -0.345786 -2.38224
upperneck 36.2846 0.0946192 -0.132029
head 14.7475 -0.353782 0.370799
rclavicle -1.50082e-014 -1.11319e-014
rhumerus -31.4121 -4.64507 -15.8288
rradius 34.0027
rwrist 10.9485
rhand -22.5166 -43.8461
rfingers 7.12502
rthumb 3.90992 -73.79
lclavicle -1.50082e-014 -1.11319e-014
lhumerus -29.7683 3.08555 11.4187
lradius 28.5587
lwrist 10.4332
lhand -24.7731 -31.079
lfingers 7.12502
lthumb 1.73073 -1.10627
rfemur -99.4384 2.11976 28.4263
rtibia 97.4016
rfoot 47.8971 3.29873
rtoes -5.57715
lfemur -18.7168 -0.230017 -23.6062
ltibia 30.468
lfoot -13.9455 8.44258
ltoes 13.7577
794
root 4.50189 17.3801 2.46047 5.69359 -10.6206 -5.1443
lowerback 12.3727 -0.114178 3.81996
upperback 5.09524 0.285628 1.09791
thorax -1.5814 0.162961 -1.04801
lowerneck -12.8601 -0.336089 -2.33507
upperneck 36.2541 0.115144 -0.213352
head 14.6715 -0.349196 0.332108
rclavicle 1.32689e-014 1.78906e-014
rhumerus -31.4395 -4.51164 -15.8305
rradius 33.8897
rwrist 10.9631
rhand -22.4907 -43.689
rfingers 7.12502
rthumb 3.93493 -73.6324
lclavicle 1.32689e-014 1.78906e-014
lhumerus -29.8717 2.83158 11.4595
lradius 28.1052
lwrist 9.82058
lhand -25.7493 -35.7594
lfingers 7.12502
lthumb 0.787888 -5.78108
rfemur -99.4282 2.14412 28.3605
rtibia 97.41
rfoot 47.8616 3.02283
rtoes -5.91349
lfemur -18.7508 -0.297629 -23.6503
ltibia 30.468
lfoot -13.9001 8.58561
ltoes 12.2748
795
root 4.49996 17.3744 2.46018 5.75064 -10.6286 -5.14064
lowerback 12.291 -0.111237 3.802
upperback 5.08661 0.284358 1.1201
thorax -1.54661 0.162453 -1.01443
lowerneck -12.9016 -0.34241 -2.39053
upperneck 36.2729 0.121632 -0.208393
head 14.6902 -0.353555 0.345024
rclavicle 1.35671e-014 -1.64991e-014
rhumerus -31.434 -4.37598 -15.8655
rradius 33.8977
rwrist 10.7765
rhand -22.2869 -44.0325
rfingers 7.12502
rthumb 4.13173 -73.9722
lclavicle 1.35671e-014 -1.64991e-014
lhumerus -29.8325 3.01986 11.4163
lradius 28.6109
lwrist 10.4426
lhand -24.9551 -32.6007
lfingers 7.12502
lthumb 1.5549 -2.62663
rfemur -99.5271 2.18179 28.3335
rtibia 97.4347
rfoot 47.6839 3.76254
rtoes -6.01055
lfemur -18.8565 -0.259963 -23.6565
ltibia 30.4881
lfoot -13.8698 8.68611
ltoes 9.84965
796
root 4.49653 17.3682 2.46088 5.81227 -10.7124 -5.21891
lowerback 12.3074 -0.0735121 3.82961
upperback 4.99865 0.342221 1.16381
thorax -1.64482 0.188621 -0.99253
lowerneck -12.6315 -0.316306 -2.34965
upperneck 36.1435 0.185927 -0.33697
head 14.5665 -0.335921 0.295148
rclavicle 9.69075e-015 9.74045e-015
rhumerus -31.4959 -4.07389 -15.9152
rradius 33.9843
rwrist 10.5639
rhand -22.1921 -44.3052
rfingers 7.12502
rthumb 4.22328 -74.2431
lclavicle 9.69075e-015 9.74045e-015
lhumerus -29.8317 2.91699 11.456
lradius 28.6896
lwrist 10.4582
lhand -25.1541 -32.0605
lfingers 7.12502
lthumb 1.36277 -2.08511
rfemur -99.5844 2.33439 28.3877
rtibia 97.4338
rfoot 48.1273 2.41218
rtoes -4.26869
lfemur -18.9271 -0.204302 -23.5739
ltibia 30.5338
lfoot -13.8925 8.80798
ltoes 8.9572
797
root 4.49477 17.3689 2.46372 5.77665 -10.864 -5.26513
lowerback 12.3793 -0.0134049 3.82873
upperback 4.94521 0.427352 1.19327
thorax -1.73605 0.228495 -0.973339
lowerneck -12.3918 -0.292684 -2.3167
upperneck 36.0331 0.235289 -0.426155
head 14.4594 -0.320508 0.260687
rclavicle -1.2424e-015 1.5704e-014
rhumerus -31.5158 -3.93285 -15.9141
rradius 33.9665
rwrist 10.6246
rhand -21.9879 -44.3557
rfingers 7.12502
rthumb 4.42048 -74.2895
lclavicle -1.2424e-015 1.5704e-014
lhumerus -29.8135 2.80278 11.5081
lradius 28.4235
lwrist 10.0865
lhand -25.2983 -32.288
lfingers 7.12502
lthumb 1.22342 -2.31173
rfemur -99.5111 2.49805 28.4111
rtibia 97.4772
rfoot 47.9421 2.72679
rtoes -5.163
lfemur -18.8855 -0.158113 -23.5352
ltibia 30.6207
lfoot -13.9566 8.92697
ltoes 8.78403
798
root 4.49492 17.3713 2.46651 5.72975 -10.9613 -5.2319
lowerback 12.3679 0.020515 3.79376
upperback 4.95113 0.46729 1.2011
thorax -1.72246 0.248137 -0.950857
lowerneck -12.4465 -0.301578 -2.42642
upperneck 36.1064 0.21492 -0.314727
head 14.5063 -0.330111 0.322623
rclavicle -5.36719e-015 6.06293e-015
rhumerus -31.4651 -3.96098 -15.8782
rradius 33.8646
rwrist 10.8348
rhand -21.852 -44.2745
rfingers 7.12502
rthumb 4.5517 -74.2056
lclavicle -5.36719e-015 6.06293e-015
lhumerus -29.7704 2.79585 11.5402
lradius 28.5418
lwrist 10.281
lhand -25.0005 -30.1546
lfingers 7.12502
lthumb 1.51104 -0.180169
rfemur -99.4668 2.5629 28.3687
rtibia 97.5468
rfoot 47.9557 3.09318
rtoes -5.92628
lfemur -18.8628 -0.10828 -23.587
ltibia 30.7241
lfoot -13.9898 8.93611
ltoes 9.50457
799
root 4.49444 17.3681 2.4648 5.77531 -11.0124 -5.2452
lowerback 12.3481 0.0146072 3.79311
upperback 4.8818 0.461775 1.22856
thorax -1.78475 0.243516 -0.921366
lowerneck -12.3118 -0.304093 -2.57042
upperneck 36.0838 0.216723 -0.234768
head 14.4649 -0.338087 0.381223
rclavicle -1.35174e-014 -1.54058e-014
rhumerus -31.3628 -3.89148 -15.8865
rradius 33.8554
rwrist 10.9151
rhand -21.7271 -44.3205
rfingers 7.12502
rthumb 4.67232 -74.249
lclavicle -1.35174e-014 -1.54058e-014
lhumerus -29.9552 2.52876 11.5982
lradius 28.4178
lwrist 10.1154
lhand -25.3115 -31.1597
lfingers 7.12502
lthumb 1.21071 -1.18337
rfemur -99.5213 2.6347 28.3807
rtibia 97.5628
rfoot 47.5462 3.56936
rtoes -5.58249
lfemur -18.9709 -0.0214525 -23.5797
ltibia 30.8209
lfoot -14.0001 8.83766
ltoes 10.7971
800
root 4.49282 17.3633 2.46016 5.85344 -11.0411 -5.26929
lowerback 12.363 -0.0164832 3.77631
upperback 4.79342 0.423893 1.26212
thorax -1.88731 0.221827 -0.87228
lowerneck -12.1298 -0.275001 -2.61299
upperneck 35.9796 0.290998 -0.312384
head 14.3743 -0.321402 0.368351
rclavicle -2.18663e-015 -2.54444e-014
rhumerus -31.2705 -3.63777 -15.9981
rradius 34.0642
rwrist 10.7737
rhand -21.5365 -44.5717
rfingers 7.12502
rthumb 4.85632 -74.496
lclavicle -2.18663e-015 -2.54444e-014
lhumerus -30.084 2.32413 11.6196
lradius 28.7837
lwrist 10.7311
lhand -24.9121 -28.7589
lfingers 7.12502
lthumb 1.59645 1.21486
rfemur -99.6182 2.69812 28.4055
rtibia 97.5792
rfoot 48.0328 2.54805
rtoes -4.97859
lfemur -19.1234 0.0402507 -23.5543
ltibia 30.9173
lfoot -14.0293 8.79328
ltoes 11.2658
801
root 4.49195 17.3624 2.45706 5.8492 -11.0628 -5.30275
lowerback 12.3841 -0.0352123 3.81489
upperback 4.84682 0.402613 1.26633
thorax -1.84341 0.212637 -0.886588
lowerneck -12.3558 -0.267877 -2.55859
upperneck 35.9865 0.328455 -0.404479
head 14.4292 -0.310861 0.326801
rclavicle -6.36111e-015 -2.47487e-014
rhumerus -31.254 -3.46631 -16.1864
rradius 34.4119
rwrist 10.5432
rhand -21.0038 -45.2941
rfingers 7.12502
rthumb 5.37065 -75.206
lclavicle -6.36111e-015 -2.47487e-014
lhumerus -30.2189 2.09387 11.6982
lradius 27.5774
lwrist 9.34724
lhand -27.1081 -37.324
lfingers 7.12502
lthumb -0.524512 -7.3449
rfemur -99.6079 2.72177 28.4624
rtibia 97.5911
rfoot 47.7692 3.06834
rtoes -5.86601
lfemur -19.1624 0.0422507 -23.5152
ltibia 31.0114
lfoot -14.0686 8.84378
ltoes 11.1119
802
root 4.49284 17.3632 2.45701 5.79374 -11.0983 -5.37058
lowerback 12.346 -0.0319707 3.96625
upperback 4.98156 0.416047 1.23961
thorax -1.6792 0.224827 -1.00057
lowerneck -12.584 -0.264578 -2.45257
upperneck 35.9349 0.341652 -0.483768
head 14.4575 -0.300802 0.27772
rclavicle -2.83268e-015 -2.95195e-014
rhumerus -31.2556 -3.57863 -16.3231
rradius 34.5413
rwrist 10.4482
rhand -20.5639 -45.7732
rfingers 7.12502
rthumb 5.79538 -75.6739
lclavicle -2.83268e-015 -2.95195e-014
lhumerus -30.0286 2.62158 11.5028
lradius 28.9153
lwrist 11.1471
lhand -24.1515 -28.51
lfingers 7.12502
lthumb 2.33104 1.45704
rfemur -99.5069 2.75289 28.5558
rtibia 97.5878
rfoot 47.6876 3.38015
rtoes -6.47104
lfemur -19.112 0.0548481 -23.45
ltibia 31.0878
lfoot -14.0769 8.91766
ltoes 10.7832
803
root 4.49359 17.3631 2.45602 5.7952 -11.1266 -5.45705
lowerback 12.2577 -0.0333558 4.12563
upperback 5.02565 0.425509 1.23046
thorax -1.58271 0.233376 -1.10024
lowerneck -12.462 -0.227952 -2.337
upperneck 35.8117 0.405549 -0.614687
head 14.3721 -0.273433 0.213883
rclavicle -1.07344e-014 6.26172e-015
rhumerus -31.3334 -3.47685 -16.4316
rradius 34.6684
rwrist 10.2932
rhand -20.7181 -45.7507
rfingers 7.12502
rthumb 5.6465 -75.6555
lclavicle -1.07344e-014 6.26172e-015
lhumerus -30.1369 2.49363 11.5399
lradius 28.6657
lwrist 10.6313
lhand -24.6472 -31.8606
lfingers 7.12502
lthumb 1.8523 -1.88886
rfemur -99.4412 2.80602 28.6534
rtibia 97.547
rfoot 47.6679 3.44105
rtoes -6.55931
lfemur -19.1104 0.0361663 -23.3609
ltibia 31.1426
lfoot -14.0727 8.99117
ltoes 10.7119
